<?xml version="1.0" encoding="UTF-8"?>
<!DOCTYPE svg PUBLIC "-//W3C//DTD SVG 1.1//EN" "http://www.w3.org/Graphics/SVG/1.1/DTD/svg11.dtd">
<svg xmlns="http://www.w3.org/2000/svg" version="1.1" width="323px" height="62px" style="shape-rendering:geometricPrecision; text-rendering:geometricPrecision; image-rendering:optimizeQuality; fill-rule:evenodd; clip-rule:evenodd" xmlns:xlink="http://www.w3.org/1999/xlink">
<g><path style="opacity:1" fill="#fdfdfd" d="M -0.5,-0.5 C 107.167,-0.5 214.833,-0.5 322.5,-0.5C 322.5,20.1667 322.5,40.8333 322.5,61.5C 214.833,61.5 107.167,61.5 -0.5,61.5C -0.5,40.8333 -0.5,20.1667 -0.5,-0.5 Z"/></g>
<g><path style="opacity:1" fill="#fac4c3" d="M 182.5,3.5 C 183.496,19.6581 183.83,35.9915 183.5,52.5C 178.968,52.8182 174.634,52.4849 170.5,51.5C 170.833,51.5 171.167,51.5 171.5,51.5C 175.167,51.5 178.833,51.5 182.5,51.5C 182.5,35.8333 182.5,20.1667 182.5,4.5C 182.5,4.16667 182.5,3.83333 182.5,3.5 Z"/></g>
<g><path style="opacity:1" fill="#f58380" d="M 182.5,3.5 C 182.5,3.83333 182.5,4.16667 182.5,4.5C 178.833,4.5 175.167,4.5 171.5,4.5C 171.5,20.1667 171.5,35.8333 171.5,51.5C 171.167,51.5 170.833,51.5 170.5,51.5C 170.5,35.5 170.5,19.5 170.5,3.5C 174.5,3.5 178.5,3.5 182.5,3.5 Z"/></g>
<g><path style="opacity:1" fill="#f56f6c" d="M 182.5,4.5 C 182.5,20.1667 182.5,35.8333 182.5,51.5C 178.833,51.5 175.167,51.5 171.5,51.5C 171.5,35.8333 171.5,20.1667 171.5,4.5C 175.167,4.5 178.833,4.5 182.5,4.5 Z"/></g>
<g><path style="opacity:1" fill="#0e515e" d="M 50.5,50.5 C 46.3656,51.4849 42.0323,51.8182 37.5,51.5C 35.4164,47.6641 33.083,43.9974 30.5,40.5C 28.1667,39.1667 25.8333,39.1667 23.5,40.5C 22.5184,43.9619 22.185,47.6286 22.5,51.5C 18.8333,51.5 15.1667,51.5 11.5,51.5C 11.5,44.5 11.5,37.5 11.5,30.5C 19.3516,30.8254 27.0182,30.492 34.5,29.5C 36.9272,28.3557 37.9272,26.3557 37.5,23.5C 37.6738,21.3066 37.0071,19.4733 35.5,18C 27.2767,16.5619 18.9433,16.0619 10.5,16.5C 10.5,13.1667 10.5,9.83333 10.5,6.5C 21.3102,5.92407 31.9768,6.75741 42.5,9C 49.8438,13.5364 52.3438,20.0364 50,28.5C 48.8141,32.51 46.6475,35.8433 43.5,38.5C 45.8233,42.4937 48.1566,46.4937 50.5,50.5 Z"/></g>
<g><path style="opacity:1" fill="#f57370" d="M 255.5,49.5 C 251.971,51.4228 247.971,52.0894 243.5,51.5C 239.749,40.9128 235.416,30.5794 230.5,20.5C 225.915,30.251 221.915,40.251 218.5,50.5C 214.066,51.7943 209.733,51.7943 205.5,50.5C 211.654,36.1881 217.821,21.8548 224,7.5C 228.45,6.19986 232.95,6.19986 237.5,7.5C 243.701,21.4421 249.701,35.4421 255.5,49.5 Z"/></g>
<g><path style="opacity:1" fill="#f9b2b0" d="M 303.5,18.5 C 302.523,15.7131 302.19,12.7131 302.5,9.5C 298.833,9.5 295.167,9.5 291.5,9.5C 291.81,12.7131 291.477,15.7131 290.5,18.5C 290.5,15.1667 290.5,11.8333 290.5,8.5C 294.833,8.5 299.167,8.5 303.5,8.5C 303.5,11.8333 303.5,15.1667 303.5,18.5 Z"/></g>
<g><path style="opacity:1" fill="#f5726f" d="M 303.5,18.5 C 305.265,19.4614 307.265,19.7947 309.5,19.5C 309.5,21.8333 309.5,24.1667 309.5,26.5C 307.265,26.2053 305.265,26.5386 303.5,27.5C 302.836,29.8097 302.503,32.3097 302.5,35C 302.525,37.9294 303.191,40.4294 304.5,42.5C 310.769,41.9502 313.769,44.9502 313.5,51.5C 312.5,51.5 311.5,51.5 310.5,51.5C 306.5,51.5 302.5,51.5 298.5,51.5C 294.416,49.9084 291.916,46.9084 291,42.5C 290.501,37.5111 290.334,32.5111 290.5,27.5C 289.432,26.5655 288.099,26.2322 286.5,26.5C 286.5,24.1667 286.5,21.8333 286.5,19.5C 288.099,19.7678 289.432,19.4345 290.5,18.5C 291.477,15.7131 291.81,12.7131 291.5,9.5C 295.167,9.5 298.833,9.5 302.5,9.5C 302.19,12.7131 302.523,15.7131 303.5,18.5 Z"/></g>
<g><path style="opacity:1" fill="#407781" d="M 69.5,17.5 C 65.8333,17.5 62.1667,17.5 58.5,17.5C 58.5,25.5 58.5,33.5 58.5,41.5C 57.5073,33.3501 57.1739,25.0168 57.5,16.5C 61.7016,16.1832 65.7016,16.5166 69.5,17.5 Z"/></g>
<g><path style="opacity:1" fill="#064e5b" d="M 69.5,17.5 C 69.1039,25.253 69.6039,32.9196 71,40.5C 76.3593,44.0243 79.8593,42.691 81.5,36.5C 82.4902,30.3554 82.8235,24.0221 82.5,17.5C 86.1667,17.5 89.8333,17.5 93.5,17.5C 93.5,28.8333 93.5,40.1667 93.5,51.5C 89.8333,51.5 86.1667,51.5 82.5,51.5C 82.6495,50.448 82.4828,49.448 82,48.5C 79.6274,50.1202 77.1274,51.4536 74.5,52.5C 71.4824,52.2962 68.4824,51.9629 65.5,51.5C 61.2228,49.6378 58.8894,46.3045 58.5,41.5C 58.5,33.5 58.5,25.5 58.5,17.5C 62.1667,17.5 65.8333,17.5 69.5,17.5 Z"/></g>
<g><path style="opacity:1" fill="#6e98a0" d="M 82.5,51.5 C 86.1667,51.5 89.8333,51.5 93.5,51.5C 93.5,40.1667 93.5,28.8333 93.5,17.5C 89.8333,17.5 86.1667,17.5 82.5,17.5C 82.8235,24.0221 82.4902,30.3554 81.5,36.5C 81.5,29.8333 81.5,23.1667 81.5,16.5C 85.8333,16.5 90.1667,16.5 94.5,16.5C 94.5,28.5 94.5,40.5 94.5,52.5C 90.2984,52.8168 86.2984,52.4834 82.5,51.5 Z"/></g>
<g><path style="opacity:1" fill="#87aab0" d="M 113.5,17.5 C 109.833,17.5 106.167,17.5 102.5,17.5C 102.5,28.8333 102.5,40.1667 102.5,51.5C 106.5,51.5 110.5,51.5 114.5,51.5C 110.366,52.4849 106.032,52.8182 101.5,52.5C 101.5,40.5 101.5,28.5 101.5,16.5C 105.702,16.1832 109.702,16.5166 113.5,17.5 Z"/></g>
<g><path style="opacity:1" fill="#084f5c" d="M 113.5,17.5 C 113.351,18.552 113.517,19.552 114,20.5C 114.816,19.1772 115.983,18.5106 117.5,18.5C 119.764,17.7814 122.097,17.448 124.5,17.5C 124.5,20.5 124.5,23.5 124.5,26.5C 122.585,26.2155 120.919,26.5489 119.5,27.5C 117.248,27.9156 115.748,29.249 115,31.5C 114.5,38.1583 114.334,44.825 114.5,51.5C 110.5,51.5 106.5,51.5 102.5,51.5C 102.5,40.1667 102.5,28.8333 102.5,17.5C 106.167,17.5 109.833,17.5 113.5,17.5 Z"/></g>
<g><path style="opacity:1" fill="#4d8089" d="M 119.5,27.5 C 120.919,26.5489 122.585,26.2155 124.5,26.5C 124.5,23.5 124.5,20.5 124.5,17.5C 122.097,17.448 119.764,17.7814 117.5,18.5C 117.611,17.8826 117.944,17.3826 118.5,17C 120.81,16.5034 123.143,16.3367 125.5,16.5C 125.5,20.1667 125.5,23.8333 125.5,27.5C 123.5,27.5 121.5,27.5 119.5,27.5 Z"/></g>
<g><path style="opacity:1" fill="#f9a6a4" d="M 150.5,17.5 C 144.797,17.3748 139.13,17.7081 133.5,18.5C 136.526,16.9814 139.859,16.3148 143.5,16.5C 146.025,16.5034 148.359,16.8367 150.5,17.5 Z"/></g>
<g><path style="opacity:1" fill="#f5726f" d="M 150.5,17.5 C 157.384,18.3833 161.384,22.3833 162.5,29.5C 162.5,36.8333 162.5,44.1667 162.5,51.5C 158.833,51.5 155.167,51.5 151.5,51.5C 151.649,50.448 151.483,49.448 151,48.5C 149.871,50.1412 148.371,51.1412 146.5,51.5C 142.5,51.5 138.5,51.5 134.5,51.5C 128.365,47.7003 126.865,42.3669 130,35.5C 130.816,34.1772 131.983,33.5106 133.5,33.5C 139.329,33.0316 144.996,32.3649 150.5,31.5C 150.657,28.656 149.324,26.9893 146.5,26.5C 145.378,25.8442 144.045,25.5108 142.5,25.5C 140.117,25.361 138.117,26.0277 136.5,27.5C 135.504,27.4142 134.671,27.7476 134,28.5C 132.247,25.9952 130.747,23.3286 129.5,20.5C 130.577,19.2949 131.91,18.6282 133.5,18.5C 139.13,17.7081 144.797,17.3748 150.5,17.5 Z"/></g>
<g><path style="opacity:1" fill="#f9aaa8" d="M 271.5,17.5 C 267.833,17.5 264.167,17.5 260.5,17.5C 260.5,28.8333 260.5,40.1667 260.5,51.5C 264.167,51.5 267.833,51.5 271.5,51.5C 271.334,44.825 271.5,38.1583 272,31.5C 272.383,30.944 272.883,30.6107 273.5,30.5C 272.57,37.7771 272.236,45.1104 272.5,52.5C 268.167,52.5 263.833,52.5 259.5,52.5C 259.5,40.5 259.5,28.5 259.5,16.5C 263.702,16.1832 267.702,16.5166 271.5,17.5 Z"/></g>
<g><path style="opacity:1" fill="#f5706d" d="M 271.5,17.5 C 271.351,18.552 271.517,19.552 272,20.5C 273.129,18.8588 274.629,17.8588 276.5,17.5C 278.5,17.5 280.5,17.5 282.5,17.5C 282.5,20.5 282.5,23.5 282.5,26.5C 280.585,26.2155 278.919,26.5489 277.5,27.5C 275.596,27.7376 274.262,28.7376 273.5,30.5C 272.883,30.6107 272.383,30.944 272,31.5C 271.5,38.1583 271.334,44.825 271.5,51.5C 267.833,51.5 264.167,51.5 260.5,51.5C 260.5,40.1667 260.5,28.8333 260.5,17.5C 264.167,17.5 267.833,17.5 271.5,17.5 Z"/></g>
<g><path style="opacity:1" fill="#f89a97" d="M 276.5,17.5 C 278.607,16.5318 280.941,16.1984 283.5,16.5C 283.5,20.1667 283.5,23.8333 283.5,27.5C 281.5,27.5 279.5,27.5 277.5,27.5C 278.919,26.5489 280.585,26.2155 282.5,26.5C 282.5,23.5 282.5,20.5 282.5,17.5C 280.5,17.5 278.5,17.5 276.5,17.5 Z"/></g>
<g><path style="opacity:1" fill="#f8a19e" d="M 290.5,18.5 C 289.432,19.4345 288.099,19.7678 286.5,19.5C 286.5,21.8333 286.5,24.1667 286.5,26.5C 288.099,26.2322 289.432,26.5655 290.5,27.5C 288.833,27.5 287.167,27.5 285.5,27.5C 285.5,24.5 285.5,21.5 285.5,18.5C 287.167,18.5 288.833,18.5 290.5,18.5 Z"/></g>
<g><path style="opacity:1" fill="#f78d8a" d="M 303.5,18.5 C 306.167,18.5 308.833,18.5 311.5,18.5C 311.5,21.5 311.5,24.5 311.5,27.5C 308.833,27.5 306.167,27.5 303.5,27.5C 305.265,26.5386 307.265,26.2053 309.5,26.5C 309.5,24.1667 309.5,21.8333 309.5,19.5C 307.265,19.7947 305.265,19.4614 303.5,18.5 Z"/></g>
<g><path style="opacity:1" fill="#fbbfbe" d="M 146.5,26.5 C 143.14,26.6159 139.807,26.9492 136.5,27.5C 138.117,26.0277 140.117,25.361 142.5,25.5C 144.045,25.5108 145.378,25.8442 146.5,26.5 Z"/></g>
<g><path style="opacity:1" fill="#f8a09d" d="M 303.5,27.5 C 303.221,32.5947 303.555,37.5947 304.5,42.5C 303.191,40.4294 302.525,37.9294 302.5,35C 302.503,32.3097 302.836,29.8097 303.5,27.5 Z"/></g>
<g><path style="opacity:1" fill="#fccfce" d="M 162.5,29.5 C 163.492,36.9818 163.825,44.6484 163.5,52.5C 159.298,52.8168 155.298,52.4834 151.5,51.5C 155.167,51.5 158.833,51.5 162.5,51.5C 162.5,44.1667 162.5,36.8333 162.5,29.5 Z"/></g>
<g><path style="opacity:1" fill="#f89694" d="M 150.5,31.5 C 144.996,32.3649 139.329,33.0316 133.5,33.5C 134.263,32.7321 135.263,32.2321 136.5,32C 141.155,31.5008 145.821,31.3342 150.5,31.5 Z"/></g>
<g><path style="opacity:1" fill="#fabfbe" d="M 150.5,38.5 C 147.098,38.3424 143.764,38.6758 140.5,39.5C 140.611,38.8826 140.944,38.3826 141.5,38C 144.696,37.1955 147.696,37.3622 150.5,38.5 Z"/></g>
<g><path style="opacity:1" fill="#fff3f3" d="M 150.5,38.5 C 150.112,44.5669 147.112,46.5669 141.5,44.5C 140.548,42.9547 140.215,41.288 140.5,39.5C 143.764,38.6758 147.098,38.3424 150.5,38.5 Z"/></g>
<g><path style="opacity:1" fill="#bed1d4" d="M 30.5,40.5 C 28.5,40.5 26.5,40.5 24.5,40.5C 24.8168,44.7016 24.4834,48.7016 23.5,52.5C 23.5,48.5 23.5,44.5 23.5,40.5C 25.8333,39.1667 28.1667,39.1667 30.5,40.5 Z"/></g>
<g><path style="opacity:1" fill="#6c969e" d="M 34.5,29.5 C 27.0182,30.492 19.3516,30.8254 11.5,30.5C 11.5,37.5 11.5,44.5 11.5,51.5C 15.1667,51.5 18.8333,51.5 22.5,51.5C 22.185,47.6286 22.5184,43.9619 23.5,40.5C 23.5,44.5 23.5,48.5 23.5,52.5C 19.1667,52.5 14.8333,52.5 10.5,52.5C 10.5,44.8333 10.5,37.1667 10.5,29.5C 18.5,29.5 26.5,29.5 34.5,29.5 Z"/></g>
<g><path style="opacity:1" fill="#6e98a0" d="M 50.5,50.5 C 51.0431,50.56 51.3764,50.8933 51.5,51.5C 46.6819,52.8124 42.0152,52.8124 37.5,51.5C 42.0323,51.8182 46.3656,51.4849 50.5,50.5 Z"/></g>
<g><path style="opacity:1" fill="#f9b1b0" d="M 205.5,50.5 C 209.733,51.7943 214.066,51.7943 218.5,50.5C 216.603,51.8048 214.269,52.4714 211.5,52.5C 209.167,52.1667 206.833,51.8333 204.5,51.5C 204.624,50.8933 204.957,50.56 205.5,50.5 Z"/></g>
<g><path style="opacity:1" fill="#f9a9a7" d="M 255.5,49.5 C 256.404,50.209 256.737,51.209 256.5,52.5C 251.968,52.8182 247.634,52.4849 243.5,51.5C 247.971,52.0894 251.971,51.4228 255.5,49.5 Z"/></g>
<g><path style="opacity:1" fill="#7da3aa" d="M 65.5,51.5 C 68.4824,51.9629 71.4824,52.2962 74.5,52.5C 71.3726,53.8149 68.3726,53.4815 65.5,51.5 Z"/></g>
<g><path style="opacity:1" fill="#f9a9a7" d="M 134.5,51.5 C 138.5,51.5 142.5,51.5 146.5,51.5C 142.5,54.1667 138.5,54.1667 134.5,51.5 Z"/></g>
<g><path style="opacity:1" fill="#faaeac" d="M 298.5,51.5 C 302.5,51.5 306.5,51.5 310.5,51.5C 308.883,52.9723 306.883,53.639 304.5,53.5C 302.117,53.639 300.117,52.9723 298.5,51.5 Z"/></g>
</svg>
